<?xml version="1.0" standalone="no"?>
<!DOCTYPE svg PUBLIC "-//W3C//DTD SVG 20010904//EN"
 "http://www.w3.org/TR/2001/REC-SVG-20010904/DTD/svg10.dtd">
<svg version="1.0" xmlns="http://www.w3.org/2000/svg"
 width="1043.000000pt" height="1043.000000pt" viewBox="0 0 1043.000000 1043.000000"
 preserveAspectRatio="xMidYMid meet">
<metadata>
Created by potrace 1.11, written by Peter Selinger 2001-2013
</metadata>
<g transform="translate(0.000000,1043.000000) scale(0.100000,-0.100000)"
fill="#000000" stroke="none">
<path d="M6485 8398 c-27 -17 -79 -48 -115 -68 -181 -103 -349 -200 -476 -276
-78 -46 -147 -84 -153 -84 -6 0 -11 -3 -11 -8 0 -4 -15 -13 -32 -21 -18 -8
-35 -17 -38 -21 -5 -6 -28 -20 -152 -89 -58 -32 -98 -55 -156 -90 -29 -17 -57
-31 -62 -31 -6 0 -10 -4 -10 -9 0 -5 -12 -14 -27 -20 -16 -7 -37 -17 -48 -24
-55 -34 -146 -87 -150 -87 -1 0 -33 -18 -69 -40 -36 -22 -70 -40 -76 -40 -5 0
-10 -4 -10 -9 0 -5 -8 -11 -17 -14 -10 -4 -36 -17 -58 -30 -122 -74 -218 -127
-230 -127 -7 0 -15 -3 -17 -7 -3 -8 -64 -53 -71 -53 -3 0 -66 -36 -141 -80
-76 -44 -141 -80 -146 -80 -6 0 -10 -3 -10 -8 0 -4 -15 -14 -32 -21 -18 -8
-55 -29 -83 -46 -27 -18 -70 -43 -95 -57 -65 -36 -108 -61 -168 -97 -29 -17
-57 -31 -62 -31 -6 0 -10 -4 -10 -9 0 -5 -8 -11 -17 -15 -10 -3 -31 -14 -48
-23 -113 -68 -157 -93 -166 -93 -5 0 -9 -4 -9 -10 0 -5 -11 -10 -24 -10 -13 0
-26 -6 -29 -14 -3 -8 -23 -22 -44 -32 -21 -10 -40 -21 -43 -24 -5 -7 -89 -54
-165 -94 -22 -12 -41 -24 -43 -28 -2 -5 -10 -8 -18 -8 -8 0 -14 -4 -14 -8 0
-5 -16 -14 -35 -22 -19 -8 -35 -17 -35 -22 0 -4 -7 -8 -15 -8 -8 0 -15 -4 -15
-10 0 -5 -4 -10 -9 -10 -5 0 -80 -41 -167 -92 -88 -50 -169 -96 -181 -102 -13
-6 -23 -14 -23 -18 0 -5 -9 -8 -20 -8 -11 0 -20 -4 -20 -8 0 -5 -12 -15 -27
-23 -16 -7 -57 -30 -92 -51 -34 -21 -64 -38 -66 -38 -4 0 -172 -95 -195 -110
-8 -5 -33 -19 -55 -31 -22 -12 -42 -24 -45 -28 -5 -6 -35 -23 -100 -58 -19
-10 -37 -21 -40 -24 -6 -7 -220 -129 -227 -129 -2 0 -24 -13 -48 -30 -24 -16
-46 -30 -48 -30 -3 0 -35 -18 -71 -40 -37 -23 -71 -38 -75 -35 -5 3 -11 -1
-14 -9 -3 -8 -31 -26 -61 -41 -31 -15 -59 -32 -62 -36 -3 -5 -29 -21 -57 -36
-29 -14 -54 -28 -57 -32 -3 -3 -23 -15 -45 -27 -39 -20 -63 -34 -170 -96 -27
-16 -60 -34 -72 -40 -13 -6 -23 -18 -23 -26 0 -17 36 -51 68 -63 13 -5 20 -13
17 -19 -3 -5 0 -7 9 -4 8 3 35 -8 60 -25 24 -17 47 -31 50 -31 3 0 29 -14 58
-32 97 -57 173 -99 191 -105 9 -3 17 -9 17 -14 0 -5 4 -9 10 -9 5 0 47 -22 92
-49 46 -26 128 -74 183 -106 55 -32 133 -77 174 -101 40 -24 77 -44 81 -44 5
0 10 -3 12 -7 2 -5 23 -18 48 -31 25 -12 59 -31 75 -41 36 -22 81 -48 235
-136 136 -78 153 -88 160 -95 3 -3 23 -14 45 -26 22 -11 57 -31 78 -42 50 -30
86 -50 192 -110 50 -28 95 -55 100 -59 6 -4 28 -18 50 -30 60 -32 105 -57 155
-87 25 -15 53 -29 63 -33 9 -3 17 -9 17 -14 0 -5 4 -9 9 -9 5 0 49 -23 98 -51
48 -29 113 -65 143 -82 30 -17 57 -34 58 -39 2 -4 9 -8 16 -8 7 0 34 -14 62
-32 27 -17 76 -46 109 -64 87 -47 218 -122 230 -131 9 -7 36 -22 120 -67 11
-6 22 -14 25 -17 3 -3 30 -19 60 -36 141 -77 175 -97 178 -105 2 -4 7 -8 12
-8 5 0 47 -23 95 -50 48 -28 89 -50 91 -50 3 0 24 -13 47 -28 23 -15 72 -43
110 -62 37 -19 67 -38 67 -42 0 -5 4 -8 9 -8 5 0 38 -17 72 -38 35 -21 89 -52
119 -69 90 -50 205 -116 210 -122 3 -3 34 -21 70 -40 36 -19 94 -52 130 -74
36 -22 85 -51 110 -64 60 -34 150 -85 175 -100 11 -7 27 -16 35 -20 8 -4 48
-26 88 -50 40 -24 77 -43 82 -43 6 0 10 -3 10 -8 0 -4 15 -14 32 -21 32 -15
128 -71 138 -81 3 -3 34 -21 70 -39 36 -19 67 -38 68 -43 2 -4 8 -8 14 -8 6 0
34 -14 62 -32 28 -17 80 -47 116 -66 36 -20 76 -44 89 -54 13 -10 28 -18 33
-18 5 0 16 -7 24 -15 17 -16 74 -20 90 -6 5 5 26 19 47 30 94 53 113 64 122
71 6 4 26 17 45 28 84 47 241 138 307 178 40 24 77 44 83 44 5 0 10 3 10 8 0
4 10 12 23 18 52 25 132 68 137 74 3 4 85 52 183 108 97 56 237 136 310 178
72 43 152 88 177 102 25 13 65 37 90 52 25 15 79 47 120 71 41 24 89 51 105
61 17 10 53 30 80 44 28 15 69 40 92 55 23 16 44 29 47 29 3 0 35 18 71 40 36
22 70 40 75 40 6 0 10 5 10 10 0 6 5 10 11 10 10 0 48 22 272 154 45 26 103
59 130 72 51 27 69 51 46 65 -8 5 -584 9 -1325 9 l-1312 0 -5 23 c-3 12 -6
763 -6 1669 l-2 1648 1313 2 c1287 3 1313 3 1313 22 0 14 -40 42 -155 109 -85
49 -173 100 -195 113 -22 13 -76 44 -120 69 -44 26 -96 56 -116 68 -20 12 -83
49 -140 81 -57 33 -105 63 -107 68 -2 4 -8 8 -13 8 -5 0 -26 11 -47 23 -20 13
-59 36 -87 52 -27 15 -106 61 -175 102 -69 41 -132 78 -140 83 -8 5 -109 64
-225 131 -115 67 -230 134 -255 149 -25 16 -63 38 -85 50 -22 12 -75 43 -119
69 -89 53 -113 66 -251 145 -55 32 -105 62 -111 67 -6 5 -44 27 -85 50 -41 23
-96 55 -124 70 -27 16 -54 28 -60 28 -5 0 -32 -14 -60 -31z"/>
<path d="M7455 6758 c-3 -7 -4 -710 -3 -1563 l3 -1550 135 0 135 0 3 713 2
712 144 0 c82 0 158 -5 177 -12 57 -19 106 -60 141 -118 l33 -54 5 -621 5
-620 124 -3 c68 -1 128 1 133 6 5 5 8 325 8 711 0 568 -3 708 -14 734 -18 42
-65 94 -96 106 -17 7 -20 10 -7 10 9 1 17 5 17 10 0 5 9 12 19 16 11 3 34 27
50 52 l31 46 0 558 c0 546 0 560 -21 616 -35 94 -88 159 -169 205 -94 55 -124
58 -502 58 -270 0 -350 -3 -353 -12z m605 -281 c49 -17 95 -46 106 -67 5 -9
20 -37 34 -61 l25 -44 0 -385 c0 -426 1 -418 -67 -496 -60 -68 -94 -78 -270
-81 l-157 -2 -3 37 c-2 20 -2 279 0 575 l2 537 148 0 c92 0 160 -5 182 -13z"/>
<path d="M7768 5363 c7 -3 16 -2 19 1 4 3 -2 6 -13 5 -11 0 -14 -3 -6 -6z"/>
<path d="M2005 5840 c-3 -5 1 -10 10 -10 9 0 13 5 10 10 -3 6 -8 10 -10 10 -2
0 -7 -4 -10 -10z"/>
</g>
</svg>
