<?xml version="1.0" encoding="UTF-8"?>
<!DOCTYPE svg PUBLIC "-//W3C//DTD SVG 1.1//EN" "http://www.w3.org/Graphics/SVG/1.1/DTD/svg11.dtd">
<svg version="1.1" xmlns="http://www.w3.org/2000/svg" xmlns:xlink="http://www.w3.org/1999/xlink" x="0" y="0" width="300" height="300" viewBox="0, 0, 300, 300">
  <g id="Instagram">
    <path d="M150,0 C232.843,-0 300,67.157 300,150 C300,232.843 232.843,300 150,300 C67.157,300 -0,232.843 -0,150 C-0,67.157 67.157,-0 150,-0 z M150,5 C69.919,5 5,69.919 5,150 C5,230.081 69.919,295 150,295 C230.081,295 295,230.081 295,150 C295,69.919 230.081,5 150,5 z" fill="#000000"/>
    <path d="M150.5,67.167 C83.833,67.167 67.167,83.833 67.167,150.5 C67.167,217.167 83.833,233.833 150.5,233.833 C217.167,233.833 233.833,217.167 233.833,150.5 C233.833,83.833 233.833,67.167 150.5,67.167 z" fill-opacity="0" stroke="#000000" stroke-width="9.5"/>
    <path d="M150,102.612 C176.171,102.612 197.388,123.829 197.388,150 C197.388,176.171 176.171,197.388 150,197.388 C123.829,197.388 102.612,176.171 102.612,150 C102.612,123.829 123.829,102.612 150,102.612 z M150,114.112 C130.18,114.112 114.112,130.18 114.112,150 C114.112,169.82 130.18,185.888 150,185.887 C169.82,185.888 185.888,169.82 185.887,150 C185.888,130.18 169.82,114.112 150,114.112 z" fill="#000000"/>
    <g>
      <path d="M198.604,112.124 C192.661,112.124 187.844,107.307 187.844,101.365 C187.844,95.422 192.661,90.605 198.604,90.605 C204.547,90.605 209.364,95.422 209.364,101.365 C209.364,107.307 204.547,112.124 198.604,112.124 z" fill="#000000"/>
      <path d="M198.604,90.604 C204.547,90.605 209.364,95.422 209.364,101.365 C209.364,107.307 204.547,112.124 198.604,112.124 C192.661,112.124 187.844,107.307 187.844,101.365 C187.844,95.422 192.661,90.605 198.604,90.605 z M198.604,100.624 C198.195,100.624 197.864,100.956 197.864,101.365 C197.864,101.773 198.195,102.105 198.604,102.104 C199.013,102.105 199.344,101.773 199.344,101.365 C199.344,100.956 199.013,100.624 198.604,100.624 z" fill="#000000"/>
    </g>
  </g>
</svg>
